<mxfile host="app.diagrams.net" modified="2023-09-30T18:34:07.330Z" agent="Mozilla/5.0 (Windows NT 10.0; Win64; x64) AppleWebKit/537.36 (KHTML, like Gecko) Chrome/117.0.0.0 Safari/537.36" etag="XRMZDKGBl-xJRMUbWJ3J" version="22.0.0" type="device">
  <diagram name="Seite-1" id="5qrD_rZEPfoOGHy2Bp49">
    <mxGraphModel dx="1595" dy="838" grid="1" gridSize="10" guides="1" tooltips="1" connect="1" arrows="1" fold="1" page="1" pageScale="1" pageWidth="11750" pageHeight="1989" math="0" shadow="0">
      <root>
        <mxCell id="0" />
        <mxCell id="1" parent="0" />
        <mxCell id="bFwfax9SEUYBs_7XjRhE-23" value="" style="rounded=0;whiteSpace=wrap;html=1;dashed=1;" parent="1" vertex="1">
          <mxGeometry x="2380" y="890" width="780" height="500" as="geometry" />
        </mxCell>
        <mxCell id="bFwfax9SEUYBs_7XjRhE-24" value="&lt;font style=&quot;font-size: 21px;&quot; data-font-src=&quot;https://fonts.googleapis.com/css?family=Lexend&quot; face=&quot;Lexend&quot;&gt;Embloy Genious feature brainstorming&lt;/font&gt;" style="text;html=1;strokeColor=none;fillColor=none;align=center;verticalAlign=middle;whiteSpace=wrap;rounded=0;fontStyle=1" parent="1" vertex="1">
          <mxGeometry x="2380" y="890" width="420" height="50" as="geometry" />
        </mxCell>
        <mxCell id="bFwfax9SEUYBs_7XjRhE-25" value="Direct messaging stream" style="rounded=0;whiteSpace=wrap;html=1;" parent="1" vertex="1">
          <mxGeometry x="2460" y="970" width="120" height="60" as="geometry" />
        </mxCell>
        <mxCell id="bFwfax9SEUYBs_7XjRhE-26" value="" style="group" parent="1" vertex="1" connectable="0">
          <mxGeometry x="180" y="60" width="1680" height="1310" as="geometry" />
        </mxCell>
        <mxCell id="uzFwtvefnB4p612GJFfR-2" value="" style="rounded=0;whiteSpace=wrap;html=1;spacingLeft=0;dashed=1;dashPattern=1 2;" parent="bFwfax9SEUYBs_7XjRhE-26" vertex="1">
          <mxGeometry x="320" y="420" width="1300" height="850" as="geometry" />
        </mxCell>
        <mxCell id="uzFwtvefnB4p612GJFfR-10" value="" style="rounded=0;whiteSpace=wrap;html=1;dashed=1;" parent="bFwfax9SEUYBs_7XjRhE-26" vertex="1">
          <mxGeometry y="-40" width="280" height="190" as="geometry" />
        </mxCell>
        <mxCell id="uzFwtvefnB4p612GJFfR-3" value="&lt;font style=&quot;font-size: 21px;&quot; data-font-src=&quot;https://fonts.googleapis.com/css?family=Lexend&quot; face=&quot;Lexend&quot;&gt;Embloy Genious UI&lt;/font&gt;" style="text;html=1;strokeColor=none;fillColor=none;align=center;verticalAlign=middle;whiteSpace=wrap;rounded=0;fontStyle=1" parent="bFwfax9SEUYBs_7XjRhE-26" vertex="1">
          <mxGeometry x="320" y="420" width="210" height="50" as="geometry" />
        </mxCell>
        <mxCell id="uzFwtvefnB4p612GJFfR-4" value="&lt;font style=&quot;font-size: 15px; font-weight: normal;&quot; data-font-src=&quot;https://fonts.googleapis.com/css?family=Lexend&quot; face=&quot;Lexend&quot;&gt;30.09.2023&lt;/font&gt;" style="text;html=1;strokeColor=none;fillColor=none;align=center;verticalAlign=middle;whiteSpace=wrap;rounded=0;fontStyle=1" parent="bFwfax9SEUYBs_7XjRhE-26" vertex="1">
          <mxGeometry x="320" y="449" width="200" height="50" as="geometry" />
        </mxCell>
        <mxCell id="uzFwtvefnB4p612GJFfR-11" value="&lt;font style=&quot;font-size: 21px;&quot; data-font-src=&quot;https://fonts.googleapis.com/css?family=Lexend&quot; face=&quot;Lexend&quot;&gt;Embloy Core&lt;/font&gt;" style="text;html=1;strokeColor=none;fillColor=none;align=center;verticalAlign=middle;whiteSpace=wrap;rounded=0;fontStyle=1" parent="bFwfax9SEUYBs_7XjRhE-26" vertex="1">
          <mxGeometry y="-40" width="180" height="50" as="geometry" />
        </mxCell>
        <mxCell id="bFwfax9SEUYBs_7XjRhE-20" value="API" style="rounded=0;whiteSpace=wrap;html=1;" parent="bFwfax9SEUYBs_7XjRhE-26" vertex="1">
          <mxGeometry x="80" y="120" width="120" height="60" as="geometry" />
        </mxCell>
        <mxCell id="R3ZnWNxD2FqQg4-nSXbg-1" value="" style="rounded=0;whiteSpace=wrap;html=1;spacingLeft=0;dashed=1;" vertex="1" parent="bFwfax9SEUYBs_7XjRhE-26">
          <mxGeometry x="810.14" y="-40" width="320" height="190" as="geometry" />
        </mxCell>
        <mxCell id="R3ZnWNxD2FqQg4-nSXbg-3" value="&lt;font style=&quot;font-size: 21px;&quot; data-font-src=&quot;https://fonts.googleapis.com/css?family=Lexend&quot; face=&quot;Lexend&quot;&gt;Embloy Genious&lt;/font&gt;" style="text;html=1;strokeColor=none;fillColor=none;align=center;verticalAlign=middle;whiteSpace=wrap;rounded=0;fontStyle=1" vertex="1" parent="bFwfax9SEUYBs_7XjRhE-26">
          <mxGeometry x="810.14" y="-40" width="199.73" height="50" as="geometry" />
        </mxCell>
        <mxCell id="R3ZnWNxD2FqQg4-nSXbg-4" value="&lt;font style=&quot;font-size: 15px; font-weight: normal;&quot; data-font-src=&quot;https://fonts.googleapis.com/css?family=Lexend&quot; face=&quot;Lexend&quot;&gt;19.08.2023&lt;/font&gt;" style="text;html=1;strokeColor=none;fillColor=none;align=center;verticalAlign=middle;whiteSpace=wrap;rounded=0;fontStyle=1" vertex="1" parent="bFwfax9SEUYBs_7XjRhE-26">
          <mxGeometry x="809.87" y="-9" width="200.27" height="50" as="geometry" />
        </mxCell>
        <mxCell id="aqF09K9uqTcHMtoUNb3W-48" value="API" style="rounded=0;whiteSpace=wrap;html=1;" parent="bFwfax9SEUYBs_7XjRhE-26" vertex="1">
          <mxGeometry x="910.14" y="120" width="120" height="60" as="geometry" />
        </mxCell>
        <mxCell id="R3ZnWNxD2FqQg4-nSXbg-8" value="Fetch Refresh/AccessToken, Fetch user account" style="edgeStyle=orthogonalEdgeStyle;rounded=0;orthogonalLoop=1;jettySize=auto;html=1;exitX=0;exitY=0.5;exitDx=0;exitDy=0;" edge="1" parent="bFwfax9SEUYBs_7XjRhE-26" source="R3ZnWNxD2FqQg4-nSXbg-7" target="bFwfax9SEUYBs_7XjRhE-20">
          <mxGeometry relative="1" as="geometry" />
        </mxCell>
        <mxCell id="R3ZnWNxD2FqQg4-nSXbg-35" style="edgeStyle=orthogonalEdgeStyle;rounded=0;orthogonalLoop=1;jettySize=auto;html=1;exitX=0.5;exitY=0;exitDx=0;exitDy=0;entryX=0.5;entryY=1;entryDx=0;entryDy=0;endArrow=none;endFill=0;" edge="1" parent="bFwfax9SEUYBs_7XjRhE-26" source="R3ZnWNxD2FqQg4-nSXbg-7" target="R3ZnWNxD2FqQg4-nSXbg-34">
          <mxGeometry relative="1" as="geometry" />
        </mxCell>
        <mxCell id="R3ZnWNxD2FqQg4-nSXbg-7" value="AuthSystem" style="rounded=0;whiteSpace=wrap;html=1;" vertex="1" parent="bFwfax9SEUYBs_7XjRhE-26">
          <mxGeometry x="910" y="1096" width="120" height="60" as="geometry" />
        </mxCell>
        <mxCell id="R3ZnWNxD2FqQg4-nSXbg-33" value="user request" style="edgeStyle=orthogonalEdgeStyle;rounded=0;orthogonalLoop=1;jettySize=auto;html=1;exitX=0.5;exitY=0;exitDx=0;exitDy=0;entryX=0.5;entryY=1;entryDx=0;entryDy=0;" edge="1" parent="bFwfax9SEUYBs_7XjRhE-26" source="R3ZnWNxD2FqQg4-nSXbg-31" target="R3ZnWNxD2FqQg4-nSXbg-7">
          <mxGeometry relative="1" as="geometry" />
        </mxCell>
        <mxCell id="R3ZnWNxD2FqQg4-nSXbg-31" value="User interface" style="rounded=0;whiteSpace=wrap;html=1;" vertex="1" parent="bFwfax9SEUYBs_7XjRhE-26">
          <mxGeometry x="910" y="1240" width="120" height="60" as="geometry" />
        </mxCell>
        <mxCell id="R3ZnWNxD2FqQg4-nSXbg-43" style="edgeStyle=orthogonalEdgeStyle;rounded=0;orthogonalLoop=1;jettySize=auto;html=1;exitX=1;exitY=0.5;exitDx=0;exitDy=0;entryX=0.5;entryY=1;entryDx=0;entryDy=0;" edge="1" parent="bFwfax9SEUYBs_7XjRhE-26" source="R3ZnWNxD2FqQg4-nSXbg-34" target="R3ZnWNxD2FqQg4-nSXbg-41">
          <mxGeometry relative="1" as="geometry" />
        </mxCell>
        <mxCell id="R3ZnWNxD2FqQg4-nSXbg-44" value="false" style="edgeLabel;html=1;align=center;verticalAlign=middle;resizable=0;points=[];" vertex="1" connectable="0" parent="R3ZnWNxD2FqQg4-nSXbg-43">
          <mxGeometry x="-0.4421" relative="1" as="geometry">
            <mxPoint as="offset" />
          </mxGeometry>
        </mxCell>
        <mxCell id="R3ZnWNxD2FqQg4-nSXbg-58" value="true" style="edgeStyle=orthogonalEdgeStyle;rounded=0;orthogonalLoop=1;jettySize=auto;html=1;exitX=0.5;exitY=0;exitDx=0;exitDy=0;entryX=0.5;entryY=1;entryDx=0;entryDy=0;" edge="1" parent="bFwfax9SEUYBs_7XjRhE-26" source="R3ZnWNxD2FqQg4-nSXbg-34" target="R3ZnWNxD2FqQg4-nSXbg-56">
          <mxGeometry relative="1" as="geometry" />
        </mxCell>
        <mxCell id="R3ZnWNxD2FqQg4-nSXbg-34" value="authenticated?" style="rhombus;whiteSpace=wrap;html=1;" vertex="1" parent="bFwfax9SEUYBs_7XjRhE-26">
          <mxGeometry x="920" y="980" width="100" height="96" as="geometry" />
        </mxCell>
        <mxCell id="R3ZnWNxD2FqQg4-nSXbg-62" value="triggers" style="edgeStyle=orthogonalEdgeStyle;rounded=0;orthogonalLoop=1;jettySize=auto;html=1;exitX=0;exitY=0.5;exitDx=0;exitDy=0;entryX=1;entryY=0.5;entryDx=0;entryDy=0;" edge="1" parent="bFwfax9SEUYBs_7XjRhE-26" source="R3ZnWNxD2FqQg4-nSXbg-38" target="R3ZnWNxD2FqQg4-nSXbg-7">
          <mxGeometry relative="1" as="geometry" />
        </mxCell>
        <mxCell id="R3ZnWNxD2FqQg4-nSXbg-38" value="API" style="rounded=0;whiteSpace=wrap;html=1;" vertex="1" parent="bFwfax9SEUYBs_7XjRhE-26">
          <mxGeometry x="1560" y="1096" width="120" height="60" as="geometry" />
        </mxCell>
        <mxCell id="R3ZnWNxD2FqQg4-nSXbg-54" value="" style="group" vertex="1" connectable="0" parent="bFwfax9SEUYBs_7XjRhE-26">
          <mxGeometry x="910" y="810" width="120" height="120" as="geometry" />
        </mxCell>
        <mxCell id="R3ZnWNxD2FqQg4-nSXbg-55" value="Dashboard" style="rounded=0;whiteSpace=wrap;html=1;" vertex="1" parent="R3ZnWNxD2FqQg4-nSXbg-54">
          <mxGeometry width="120" height="60" as="geometry" />
        </mxCell>
        <mxCell id="R3ZnWNxD2FqQg4-nSXbg-56" value="/" style="ellipse;whiteSpace=wrap;html=1;" vertex="1" parent="R3ZnWNxD2FqQg4-nSXbg-54">
          <mxGeometry x="35" y="70" width="50" height="50" as="geometry" />
        </mxCell>
        <mxCell id="R3ZnWNxD2FqQg4-nSXbg-57" style="edgeStyle=orthogonalEdgeStyle;rounded=0;orthogonalLoop=1;jettySize=auto;html=1;exitX=0.5;exitY=0;exitDx=0;exitDy=0;entryX=0.5;entryY=1;entryDx=0;entryDy=0;endArrow=none;endFill=0;" edge="1" parent="R3ZnWNxD2FqQg4-nSXbg-54" source="R3ZnWNxD2FqQg4-nSXbg-56" target="R3ZnWNxD2FqQg4-nSXbg-55">
          <mxGeometry relative="1" as="geometry" />
        </mxCell>
        <mxCell id="R3ZnWNxD2FqQg4-nSXbg-59" style="edgeStyle=orthogonalEdgeStyle;rounded=0;orthogonalLoop=1;jettySize=auto;html=1;exitX=1;exitY=0.5;exitDx=0;exitDy=0;entryX=0;entryY=0.5;entryDx=0;entryDy=0;" edge="1" parent="bFwfax9SEUYBs_7XjRhE-26" source="R3ZnWNxD2FqQg4-nSXbg-56" target="R3ZnWNxD2FqQg4-nSXbg-41">
          <mxGeometry relative="1" as="geometry" />
        </mxCell>
        <mxCell id="R3ZnWNxD2FqQg4-nSXbg-60" value="" style="group" vertex="1" connectable="0" parent="bFwfax9SEUYBs_7XjRhE-26">
          <mxGeometry x="1400" y="810" width="120" height="120" as="geometry" />
        </mxCell>
        <mxCell id="R3ZnWNxD2FqQg4-nSXbg-40" value="Sign in" style="rounded=0;whiteSpace=wrap;html=1;" vertex="1" parent="R3ZnWNxD2FqQg4-nSXbg-60">
          <mxGeometry width="120" height="60" as="geometry" />
        </mxCell>
        <mxCell id="R3ZnWNxD2FqQg4-nSXbg-41" value="/signin" style="ellipse;whiteSpace=wrap;html=1;" vertex="1" parent="R3ZnWNxD2FqQg4-nSXbg-60">
          <mxGeometry x="35" y="70" width="50" height="50" as="geometry" />
        </mxCell>
        <mxCell id="R3ZnWNxD2FqQg4-nSXbg-42" style="edgeStyle=orthogonalEdgeStyle;rounded=0;orthogonalLoop=1;jettySize=auto;html=1;exitX=0.5;exitY=0;exitDx=0;exitDy=0;entryX=0.5;entryY=1;entryDx=0;entryDy=0;endArrow=none;endFill=0;" edge="1" parent="R3ZnWNxD2FqQg4-nSXbg-60" source="R3ZnWNxD2FqQg4-nSXbg-41" target="R3ZnWNxD2FqQg4-nSXbg-40">
          <mxGeometry relative="1" as="geometry" />
        </mxCell>
        <mxCell id="R3ZnWNxD2FqQg4-nSXbg-61" value="request sign in" style="edgeStyle=orthogonalEdgeStyle;orthogonalLoop=1;jettySize=auto;html=1;exitX=1;exitY=0.5;exitDx=0;exitDy=0;entryX=1;entryY=0.5;entryDx=0;entryDy=0;dashed=1;dashPattern=1 1;rounded=0;endArrow=block;endFill=0;strokeColor=default;" edge="1" parent="bFwfax9SEUYBs_7XjRhE-26" source="R3ZnWNxD2FqQg4-nSXbg-40" target="R3ZnWNxD2FqQg4-nSXbg-38">
          <mxGeometry relative="1" as="geometry">
            <mxPoint x="1840" y="839.6666666666665" as="targetPoint" />
            <Array as="points">
              <mxPoint x="1880" y="840" />
              <mxPoint x="1880" y="1126" />
            </Array>
          </mxGeometry>
        </mxCell>
        <mxCell id="R3ZnWNxD2FqQg4-nSXbg-68" style="edgeStyle=orthogonalEdgeStyle;rounded=0;orthogonalLoop=1;jettySize=auto;html=1;exitX=0.5;exitY=0;exitDx=0;exitDy=0;entryX=0.5;entryY=1;entryDx=0;entryDy=0;dashed=1;dashPattern=1 1;endArrow=block;endFill=0;" edge="1" parent="bFwfax9SEUYBs_7XjRhE-26" source="R3ZnWNxD2FqQg4-nSXbg-55" target="aqF09K9uqTcHMtoUNb3W-48">
          <mxGeometry relative="1" as="geometry">
            <Array as="points">
              <mxPoint x="970" y="180" />
            </Array>
          </mxGeometry>
        </mxCell>
        <mxCell id="R3ZnWNxD2FqQg4-nSXbg-69" value="" style="group" vertex="1" connectable="0" parent="bFwfax9SEUYBs_7XjRhE-26">
          <mxGeometry x="660" y="810" width="120" height="120" as="geometry" />
        </mxCell>
        <mxCell id="R3ZnWNxD2FqQg4-nSXbg-70" value="Calendar" style="rounded=0;whiteSpace=wrap;html=1;" vertex="1" parent="R3ZnWNxD2FqQg4-nSXbg-69">
          <mxGeometry width="120" height="60" as="geometry" />
        </mxCell>
        <mxCell id="R3ZnWNxD2FqQg4-nSXbg-71" value="/calendar" style="ellipse;whiteSpace=wrap;html=1;" vertex="1" parent="R3ZnWNxD2FqQg4-nSXbg-69">
          <mxGeometry x="35" y="70" width="50" height="50" as="geometry" />
        </mxCell>
        <mxCell id="R3ZnWNxD2FqQg4-nSXbg-72" style="edgeStyle=orthogonalEdgeStyle;rounded=0;orthogonalLoop=1;jettySize=auto;html=1;exitX=0.5;exitY=0;exitDx=0;exitDy=0;entryX=0.5;entryY=1;entryDx=0;entryDy=0;endArrow=none;endFill=0;" edge="1" parent="R3ZnWNxD2FqQg4-nSXbg-69" source="R3ZnWNxD2FqQg4-nSXbg-71" target="R3ZnWNxD2FqQg4-nSXbg-70">
          <mxGeometry relative="1" as="geometry" />
        </mxCell>
        <mxCell id="R3ZnWNxD2FqQg4-nSXbg-73" style="edgeStyle=orthogonalEdgeStyle;rounded=0;orthogonalLoop=1;jettySize=auto;html=1;" edge="1" parent="bFwfax9SEUYBs_7XjRhE-26" source="R3ZnWNxD2FqQg4-nSXbg-56" target="R3ZnWNxD2FqQg4-nSXbg-71">
          <mxGeometry relative="1" as="geometry" />
        </mxCell>
        <mxCell id="R3ZnWNxD2FqQg4-nSXbg-74" style="edgeStyle=orthogonalEdgeStyle;rounded=0;orthogonalLoop=1;jettySize=auto;html=1;entryX=0.5;entryY=1;entryDx=0;entryDy=0;dashed=1;dashPattern=1 1;endArrow=block;endFill=0;" edge="1" parent="bFwfax9SEUYBs_7XjRhE-26" source="R3ZnWNxD2FqQg4-nSXbg-70" target="aqF09K9uqTcHMtoUNb3W-48">
          <mxGeometry relative="1" as="geometry">
            <Array as="points">
              <mxPoint x="720" y="790" />
              <mxPoint x="970" y="790" />
            </Array>
          </mxGeometry>
        </mxCell>
        <mxCell id="R3ZnWNxD2FqQg4-nSXbg-82" value="fetch data" style="edgeLabel;html=1;align=center;verticalAlign=middle;resizable=0;points=[];" vertex="1" connectable="0" parent="R3ZnWNxD2FqQg4-nSXbg-74">
          <mxGeometry x="0.8707" y="-3" relative="1" as="geometry">
            <mxPoint as="offset" />
          </mxGeometry>
        </mxCell>
        <mxCell id="bFwfax9SEUYBs_7XjRhE-27" value="calendar/ staff planner" style="rounded=0;whiteSpace=wrap;html=1;" parent="1" vertex="1">
          <mxGeometry x="2570" y="1110" width="120" height="60" as="geometry" />
        </mxCell>
        <mxCell id="bFwfax9SEUYBs_7XjRhE-28" value="api integration to other hr software" style="rounded=0;whiteSpace=wrap;html=1;" parent="1" vertex="1">
          <mxGeometry x="2430" y="1220" width="120" height="60" as="geometry" />
        </mxCell>
        <mxCell id="R3ZnWNxD2FqQg4-nSXbg-30" value="user&lt;br&gt;" style="shape=umlActor;verticalLabelPosition=bottom;verticalAlign=top;html=1;outlineConnect=0;" vertex="1" parent="1">
          <mxGeometry x="1135" y="1580" width="30" height="60" as="geometry" />
        </mxCell>
        <mxCell id="R3ZnWNxD2FqQg4-nSXbg-32" style="edgeStyle=orthogonalEdgeStyle;rounded=0;orthogonalLoop=1;jettySize=auto;html=1;exitX=0.5;exitY=1;exitDx=0;exitDy=0;entryX=0.5;entryY=0;entryDx=0;entryDy=0;entryPerimeter=0;startArrow=classic;startFill=1;" edge="1" parent="1" source="R3ZnWNxD2FqQg4-nSXbg-31" target="R3ZnWNxD2FqQg4-nSXbg-30">
          <mxGeometry relative="1" as="geometry" />
        </mxCell>
        <mxCell id="R3ZnWNxD2FqQg4-nSXbg-53" value="" style="group" vertex="1" connectable="0" parent="1">
          <mxGeometry x="1880" y="580" width="120" height="120" as="geometry" />
        </mxCell>
        <mxCell id="R3ZnWNxD2FqQg4-nSXbg-47" value="page" style="rounded=0;whiteSpace=wrap;html=1;" vertex="1" parent="R3ZnWNxD2FqQg4-nSXbg-53">
          <mxGeometry width="120" height="60" as="geometry" />
        </mxCell>
        <mxCell id="R3ZnWNxD2FqQg4-nSXbg-48" value="/route" style="ellipse;whiteSpace=wrap;html=1;" vertex="1" parent="R3ZnWNxD2FqQg4-nSXbg-53">
          <mxGeometry x="35" y="70" width="50" height="50" as="geometry" />
        </mxCell>
        <mxCell id="R3ZnWNxD2FqQg4-nSXbg-49" style="edgeStyle=orthogonalEdgeStyle;rounded=0;orthogonalLoop=1;jettySize=auto;html=1;exitX=0.5;exitY=0;exitDx=0;exitDy=0;entryX=0.5;entryY=1;entryDx=0;entryDy=0;endArrow=none;endFill=0;" edge="1" parent="R3ZnWNxD2FqQg4-nSXbg-53" source="R3ZnWNxD2FqQg4-nSXbg-48" target="R3ZnWNxD2FqQg4-nSXbg-47">
          <mxGeometry relative="1" as="geometry" />
        </mxCell>
      </root>
    </mxGraphModel>
  </diagram>
</mxfile>
